<svg width="398" height="119" viewBox="0 0 398 119" fill="none" xmlns="http://www.w3.org/2000/svg">
<g clip-path="url(#clip0_162_13)">
<path d="M118.803 7.12812C118.997 7.13454 119.189 7.18116 119.365 7.26507C119.541 7.34898 119.697 7.46836 119.825 7.61575C119.953 7.76313 120.049 7.93534 120.107 8.12157C120.165 8.3078 120.184 8.50404 120.163 8.698C120.163 10.2679 120.39 13.0152 120.39 14.8205C119.936 16.3904 120.845 20.7076 123.111 20.7076C125.377 20.7076 125.15 19.801 125.15 17.9838C124.682 14.9058 124.455 11.7958 124.472 8.6823C124.421 8.3238 124.481 7.9584 124.642 7.63458C124.804 7.31075 125.06 7.04379 125.377 6.86909C127.187 6.08129 128.866 5.02115 130.356 3.72541L131.262 3.04643L131.717 2.59117C131.836 3.41863 131.912 4.25182 131.944 5.08728C131.944 8.71763 131.489 14.6125 131.489 14.6125V15.9744L131.944 18.9218C132.171 20.2837 133.077 21.418 134.888 19.8284C136.7 18.2389 140.326 14.6321 142.592 14.3888C145.086 13.9336 144.403 18.2429 144.403 18.2429C144.403 20.9666 146.215 20.739 146.215 20.739C147.783 20.9666 147.348 17.5639 147.348 17.5639V15.0678C148.044 17.0235 149.394 18.678 151.17 19.7509C152.945 20.8239 155.037 21.2492 157.09 20.9548L158.223 20.7272C159.514 20.465 160.739 19.9482 161.828 19.207C162.917 18.4658 163.848 17.515 164.566 16.41L164.794 14.8402C164.099 14.9151 163.416 15.0678 162.755 15.2954C161.195 15.7148 159.605 16.0178 158 16.202C157.139 16.3487 156.255 16.2824 155.425 16.0088C154.596 15.7351 153.845 15.2625 153.24 14.6321C151.88 13.2703 154.373 13.2703 154.373 13.2703C155.941 13.0426 161.171 13.2703 162.532 13.2703C163.892 13.2703 163.665 12.3637 163.665 12.3637C163.437 8.28198 158.454 7.82672 156.639 7.82672C155.071 7.82672 155.506 8.96096 155.961 9.63993C156.24 10.0653 156.468 10.5225 156.639 11.0018C156.639 12.3637 153.013 11.9084 153.013 11.9084C152.609 11.681 152.271 11.3523 152.032 10.9545C151.794 10.5568 151.663 10.1037 151.652 9.63993C151.652 8.07005 150.519 8.27806 150.519 8.27806C148.708 8.27806 147.575 10.7742 147.12 11.9084V10.0795C147.12 7.35575 144.176 7.58339 144.176 7.58339C141.158 7.88001 138.345 9.24693 136.245 11.4374C135.567 12.1164 135.567 10.9822 135.567 10.9822C136.021 8.94133 136.7 3.49778 136.7 3.49778C136.788 2.87203 136.685 2.23421 136.405 1.66773C136.126 1.10125 135.682 0.632473 135.131 0.322694C133.865 -0.0838322 132.492 -0.0026637 131.281 0.550326C128.207 1.52698 124.991 1.98716 121.766 1.9122C120.246 1.9148 118.727 1.83751 117.215 1.68064C115.647 1.45301 114.27 0.546402 114.27 2.1359C114.537 3.28632 115.093 4.34919 115.887 5.22313C116.68 6.09707 117.684 6.75293 118.803 7.12812ZM94.3309 89.4644C94.3309 89.4644 96.5969 79.0325 88.4501 79.7115C81.3725 80.8053 74.8024 84.0527 69.6318 89.013C66.4601 91.9605 64.1941 93.55 64.1941 90.3749C64.1941 87.1998 64.1941 82.8905 59.2112 81.0734C56.2669 79.9391 55.8121 81.98 55.8121 83.3419C55.8121 83.3419 56.2669 88.3301 56.2669 95.8185C54.0457 90.9507 50.4204 86.8597 45.8573 84.0718C41.2942 81.2839 36.0022 79.9266 30.6622 80.1746C22.0371 80.1746 21.598 81.7445 21.598 81.7445C21.598 82.4235 24.0914 83.3144 24.0914 83.3144C45.3914 88.9856 44.7093 94.4291 44.9367 96.6976C45.164 99.4213 43.5762 101.235 39.2716 101.235C35.0839 101.445 30.9141 100.554 27.1776 98.6493C23.4411 96.7446 20.2684 93.8931 17.9755 90.3788C12.0947 82.6668 14.349 67.4704 14.5764 61.1202C14.8038 54.77 10.95 55.2332 10.95 55.2332C7.45562 56.1443 4.41734 58.3086 2.41237 61.3149C0.407391 64.3213 -0.424579 67.9602 0.0745233 71.5403C0.980156 82.4274 1.64272 88.7776 1.64272 96.7172L1.88579 110.787C1.88579 110.787 0.980156 117.82 4.60661 117.82C7.77828 117.82 10.0443 113.503 11.8556 110.336C13.4238 106.933 15.482 106.482 17.5207 108.523C19.332 110.336 26.3575 118.503 36.7781 117.597C47.1988 116.69 50.5978 116.027 55.5965 108.071L56.0512 106.71C55.9319 108.865 56.2397 111.023 56.9569 113.06C58.3173 115.783 59.6777 116.914 61.489 116.462C63.755 115.783 63.755 113.287 65.1154 110.791C68.3888 105.658 72.4401 101.066 77.1239 97.1803C82.3342 93.0987 85.2824 91.2933 89.3597 91.5092C90.3464 91.3851 91.348 91.4625 92.304 91.7368C92.9705 92.1881 94.3309 91.2776 94.3309 89.4644ZM307.104 44.0988C315.035 44.0988 315.94 38.4276 315.94 38.4276C315.94 31.6222 305.747 31.8498 305.747 31.8498C297.589 31.8498 297.816 37.521 297.816 37.521C298.024 44.5541 307.104 44.0988 307.104 44.0988ZM258.372 27.3168C260.865 27.3168 263.355 24.3693 263.582 20.739C263.81 17.1086 262.014 14.1612 259.505 14.1612C256.996 14.1612 254.522 17.1086 254.295 20.739C253.84 24.3654 255.655 27.3168 258.372 27.3168ZM64.8763 43.1922C72.8074 43.1922 73.713 37.521 73.713 37.521C73.713 30.7156 63.5198 30.9432 63.5198 30.9432C55.3612 30.9432 55.5886 36.6144 55.5886 36.6144C55.5847 43.6474 64.8763 43.1922 64.8763 43.1922ZM392.507 49.77C389.787 50.6766 385.937 52.4937 385.937 52.4937C382.31 53.4003 378.688 53.1727 379.593 47.2778C380.499 41.3829 381.859 35.9354 382.992 26.1825C383.318 24.8485 383.353 23.4599 383.095 22.1112C382.837 20.7624 382.292 19.4851 381.497 18.3661C380.701 17.2471 379.675 16.3127 378.486 15.6264C377.298 14.9401 375.976 14.518 374.61 14.3888C372.799 14.3888 371.211 14.8441 371.89 20.5113C372.344 26.1825 372.795 35.2564 372.795 35.2564C372.568 47.9568 372.117 59.2992 372.117 59.2992C360.336 45.4646 353.993 39.7934 350.594 36.1631C349.607 34.8968 348.376 33.8424 346.974 33.0629C345.571 32.2834 344.026 31.7948 342.431 31.6261C337.448 32.0814 330.423 43.1922 327.024 47.9568C326.02 49.4481 325.183 51.046 324.53 52.7214C318.385 54.2853 312.049 54.9724 305.712 54.7622C290.304 54.5346 291.437 36.1631 291.437 36.1631C282.812 37.9763 281.467 47.0502 281.244 49.5463L280.566 49.3186C276.939 48.6397 269.918 53.4003 266.06 53.6358C263.116 53.8634 262.21 49.0989 261.983 42.7487C261.755 36.1709 257.905 36.8616 257.905 36.8616C254.055 36.8616 253.146 41.6262 253.146 44.1184V43.8908C253.075 42.2463 252.677 40.6325 251.975 39.1442C251.272 37.656 250.279 36.3233 249.055 35.2246C247.831 34.1258 246.399 33.2831 244.845 32.7461C243.291 32.209 241.645 31.9883 240.004 32.0971C234.124 32.0971 225.052 39.8091 225.052 39.8091C221.425 41.8499 218.026 46.6145 215.309 40.2644C212.138 33.2313 208.739 32.0971 204.889 31.8734C200.753 32.0884 196.79 33.5985 193.558 36.1905C189.026 38.6866 185.4 42.7683 183.365 43.4473C181.326 44.3539 179.515 41.1788 179.515 38.459C179.51 37.813 179.367 37.1756 179.096 36.5889C178.826 36.0023 178.434 35.4799 177.947 35.0563C176.379 33.922 171.149 30.5193 170.698 37.0971L170.925 51.1593C169.114 51.387 165.715 52.2936 165.715 52.2936C161.51 53.5379 157.178 54.2989 152.801 54.562C146.23 54.562 143.509 53.8831 140.114 50.4804C136.719 47.0776 143.286 46.6263 143.286 46.6263C147.818 46.171 161.187 46.3987 165.037 46.6263C168.663 46.8539 168.209 44.1302 168.209 44.1302C167.754 33.2431 154.161 31.6536 149.629 31.6536C145.097 31.6536 146.458 34.3773 148.061 36.4182C148.85 37.5774 149.385 38.891 149.629 40.2722C149.857 43.9026 139.887 42.5407 139.887 42.5407C136.488 42.3131 136.26 38.2235 136.26 38.2235C136.26 33.9063 133.54 34.5932 133.54 34.5932C129.008 34.5932 126.063 40.9433 124.703 44.346L124.476 40.2644C124.248 33.2313 116.544 33.4589 116.544 33.4589C105.214 33.4589 95.0209 43.8908 95.0209 43.8908C92.9822 45.9316 92.9822 42.7565 92.9822 42.7565C94.3426 37.0854 95.9265 22.7955 95.9265 22.7955C96.3813 12.136 86.1841 13.7216 83.9181 13.7216C83.0124 13.7216 81.8794 14.1769 82.3499 17.1243C82.5773 19.8481 83.0281 23.9298 83.0281 23.9298C83.2555 33.455 82.1225 52.2818 82.1225 52.2818C76.4383 53.7929 70.5386 54.3238 64.6763 53.8517C49.2688 53.624 50.4018 35.2525 50.4018 35.2525C40.2086 37.521 40.2085 49.3147 40.2085 49.3147C40.2085 68.8205 62.1868 67.9139 62.1868 67.9139C78.4999 67.9139 82.3538 55.8925 82.3538 55.8925L83.7142 64.0598C84.6198 67.4625 86.6585 70.8652 91.6453 66.3283C96.6322 61.7913 105.92 52.2661 112.491 51.1319C119.061 49.9976 117.474 61.5637 117.474 61.5637C117.701 69.2757 122.006 68.1415 122.006 68.1415C126.538 68.5968 125.177 59.7505 125.177 59.7505L124.95 53.628C125.177 54.5346 129.482 68.8244 148.967 69.052C145.842 75.0763 141.525 80.4014 136.28 84.7037C132.887 82.1237 128.76 80.6939 124.499 80.622C114.078 80.3944 113.169 84.2524 113.169 86.5091C113.169 86.5091 112.491 92.6316 121.327 92.6316C123.51 92.7229 125.662 92.085 127.443 90.8184C129.937 88.7776 134.014 86.7367 133.324 91.2737C132.634 95.8106 129.698 100.575 118.144 101.027C118.144 101.027 103.415 102.388 103.638 90.5947C103.245 87.9444 103.722 85.2379 104.999 82.8827C103.269 83.0525 101.59 83.5641 100.059 84.3878C98.5283 85.2116 97.1759 86.3312 96.0802 87.6817C94.9846 89.0322 94.1674 90.5869 93.676 92.2558C93.1846 93.9246 93.0287 95.6745 93.2175 97.4041C93.2175 110.787 106.359 117.593 118.14 117.593C129.921 117.593 141.702 108.958 142.157 98.3146C142.385 94.178 141.005 90.1136 138.307 86.9722C139.326 86.4944 140.388 86.1146 141.479 85.838C143.047 85.6103 144.65 86.5169 144.65 89.4683C144.65 92.4197 144.196 97.8593 144.423 103.758C144.65 109.657 147.595 116.686 158.697 116.686C168.44 116.686 173.65 101.262 174.771 96.9527C174.502 98.5274 174.35 100.12 174.317 101.717L174.544 105.348L175.904 113.515C176.81 116.918 178.849 120.32 183.836 115.783C188.822 111.246 198.114 101.713 204.446 100.583C210.777 99.4527 209.429 111.015 209.429 111.015C209.656 118.499 213.961 117.365 213.961 117.365C218.493 117.82 217.132 108.974 217.132 108.974L216.905 101.262V102.396C216.905 102.396 221.217 118.955 242.733 118.048L245.905 117.369C245.905 117.369 254.063 116.914 262.673 106.027C262.708 106.492 262.63 106.96 262.445 107.388C262.326 109.544 262.634 111.702 263.351 113.739C264.484 116.462 266.072 117.593 267.663 117.141C269.929 116.462 269.93 113.966 271.063 111.47C274.361 106.287 278.496 101.688 283.298 97.8593C288.509 93.7776 291.457 91.9723 295.307 92.1881C296.294 92.064 297.295 92.1414 298.251 92.4158C298.46 92.5278 298.694 92.5864 298.931 92.5864C299.169 92.5864 299.402 92.5278 299.612 92.4158C300.066 98.7659 314.341 102.62 320.229 104.892C326.573 107.161 325.894 110.336 325.894 110.336C325.656 112.189 324.867 113.927 323.628 115.324C322.268 116.894 324.761 117.365 324.761 117.365C336.543 116.458 341.753 114.19 343.341 106.478C344.928 98.7659 323.401 93.7776 318.869 90.3867C315.47 87.8906 316.83 85.3984 317.509 83.5813C318.187 82.0114 317.054 82.0114 315.015 82.0114C312.976 82.0114 304.14 84.0522 300.968 88.5892C301.195 85.6417 300.968 79.9548 294.852 80.4219C287.774 81.5157 281.204 84.7631 276.034 89.7234C272.862 92.6709 270.596 94.2604 270.596 91.0853C270.596 87.9102 270.596 83.6009 265.613 81.7837C262.896 80.6495 262.214 82.6904 262.214 84.0522L262.669 96.5288V101.293C260.988 101.576 259.324 101.955 257.686 102.428C253.481 103.672 249.148 104.433 244.772 104.696C238.428 104.696 235.48 104.017 232.085 100.614C228.69 97.2117 235.257 96.7604 235.257 96.7604C239.789 96.3051 253.158 96.5328 256.78 96.7604C260.403 96.988 259.952 94.2643 259.952 94.2643C259.497 83.3772 245.905 82.0153 241.373 82.0153C236.841 82.0153 238.201 84.739 239.804 86.7799C240.594 87.9391 241.128 89.2527 241.373 90.6339C241.6 94.2643 231.63 92.9024 231.63 92.9024C228.231 92.6748 228.004 88.5853 228.004 88.5853C228.004 84.2681 225.283 84.9549 225.283 84.9549C220.751 84.9549 217.807 91.3051 216.446 94.7078L216.219 89.9432C215.991 82.9101 208.288 83.1378 208.288 83.1378C196.957 83.1378 186.988 93.5696 186.988 93.5696C184.949 95.6105 184.949 92.4354 184.949 92.4354C186.309 86.7642 187.893 72.702 187.893 72.702C188.121 67.7137 186.082 65.4452 183.581 64.5347C184.836 62.5195 186.449 60.7516 188.34 59.3188C190.379 57.7489 197.404 51.1515 202.387 50.0172C207.37 48.883 206.465 53.4199 206.919 61.3596C207.147 67.2467 208.052 67.7098 214.623 69.5269C217.344 70.4335 220.504 66.3518 220.504 66.3518C222.609 64.2134 224.574 61.9401 226.385 59.5464C230.135 54.4578 235.239 50.5275 241.114 48.204C245.646 47.2974 245.646 53.1923 245.646 53.1923L245.458 59.7662C245.458 64.7545 247.026 67.023 249.535 67.9335C252.044 68.844 252.256 65.4374 252.256 65.4374L252.483 62.0347C253.553 64.2093 255.244 66.017 257.341 67.2285C259.439 68.4401 261.848 69.001 264.264 68.8401C273.779 69.0677 279.899 56.5911 281.032 53.8713C283.526 69.7506 302.783 69.0677 302.783 69.0677C317.058 69.0677 321.817 59.9938 322.723 57.5016C323.019 58.0641 323.485 58.5186 324.055 58.8005C324.624 59.0824 325.268 59.1772 325.894 59.0715C328.615 58.6163 331.56 54.7543 333.826 52.2661C336.092 49.7778 338.358 47.2778 339.942 47.5015C343.52 49.2323 346.743 51.6177 349.445 54.5346C353.295 58.1649 360.999 64.7388 360.999 64.7388C360.999 64.7388 364.398 68.3691 367.114 68.3691C369.174 68.3238 371.163 67.6073 372.78 66.3283C373.568 65.7669 374.257 65.0771 374.818 64.2874C377.99 67.1854 382.081 68.8723 386.372 69.052C394.076 69.052 396.565 59.2991 397.702 53.4003C399.078 47.2778 395.224 49.091 392.507 49.77ZM174.768 94.904C173.5 94.879 172.248 95.1919 171.141 95.8106C168.477 98.1388 165.147 99.567 161.626 99.8923C158.682 100.348 155.961 100.571 154.828 96.9449C153.695 93.0908 153.695 87.871 155.055 86.9644C160.164 86.3136 165.317 86.0865 170.463 86.2854C172.031 85.8301 172.501 86.0577 172.501 84.0169C172.501 79.0286 156.188 80.8418 156.188 80.8418C155.686 80.8398 155.202 80.6545 154.827 80.3207C154.452 79.9869 154.211 79.5275 154.15 79.0286C154.005 75.2466 154.081 71.4594 154.377 67.6862C160.84 65.78 166.445 61.6933 170.239 56.1201L170.467 58.8439C170.454 61.3385 171.339 63.7543 172.96 65.6493C173.849 66.3793 174.549 67.3138 174.999 68.373C175.454 73.1376 175.454 76.5404 175.454 76.5404C175.446 81.98 174.983 89.4644 174.764 94.9079L174.768 94.904ZM322.495 84.9235C322.495 87.6472 325.894 89.9118 329.972 90.1394C334.049 90.3671 337.448 88.3262 337.448 85.6025C337.448 82.8787 334.049 80.6142 329.972 80.3866C325.894 80.1589 322.495 82.2037 322.495 84.9235ZM341.753 56.3438C336.993 56.1162 333.371 58.6123 333.371 62.015C333.371 65.4178 337.221 68.3652 341.753 68.5928C346.512 68.8205 350.135 66.3244 350.135 62.9216C350.135 59.5189 346.285 56.5754 341.753 56.3478V56.3438ZM308.221 104.657C303.461 104.429 299.596 106.925 299.596 110.544C299.596 113.947 303.446 116.894 308.221 117.122C312.996 117.349 316.846 114.853 316.846 111.235C316.83 107.836 312.984 104.896 308.221 104.657Z" fill="white"/>
</g>
<defs>
<clipPath id="clip0_162_13">
<rect width="398" height="118" fill="white" transform="translate(0 0.0791016)"/>
</clipPath>
</defs>
</svg>
