<?xml version="1.0" encoding="UTF-8"?>
<svg width="407px" height="215px" viewBox="0 0 407 215" version="1.1" xmlns="http://www.w3.org/2000/svg" xmlns:xlink="http://www.w3.org/1999/xlink">
    <title>Sing Up logo_CMYK_strap</title>
    <g id="Page-1" stroke="none" stroke-width="1" fill="none" fill-rule="evenodd">
        <g id="Sing-Up-logo_CMYK_strap" transform="translate(0.000000, 1.000000)" fill-rule="nonzero">
            <path d="M87.38,2.92 C87.6,9.13 89.38,15.26 87.38,20.98 C83.08,18.98 75.15,20.53 69.31,20.03 C69.93,14.63 68.06,6.74 70.31,2.92 C75.26,0.18 81.43,3.53 87.38,2.92 Z" id="Path" fill="#fff"></path>
            <path d="M54.1,58.05 C49.81,60.44 42.71,59.97 36.04,59.95 C40.79,52.71 23.16,41.55 19.88,51.4 C16.1,62.76 49.12,70.24 53.15,81.82 C62.04,107.34 25.85,120.54 6.57,104.63 C4.51,98.46 1.07,93.63 1.82,84.63 C6.31,84.35 13.93,82.2 17.98,84.63 C21.98,84.08 18.82,91.48 23.68,94.14 C27.68,96.3 33.97,95.14 35.09,90.34 C36.99,82.19 11.25,72.95 6.57,67.52 C-23.48,32.71 59.56,11.71 54.1,58.05 Z" id="Path" fill="#fff"></path>
            <path d="M158.67,109.39 C152.67,108.71 144.86,110.39 141.56,109.39 C137.85,93.47 149.3,51.64 133.96,48.55 C113.67,44.46 125.77,91.23 122.55,109.39 C117.32,110.15 109.47,111.3 104.49,109.39 C104.99,80.88 103.81,58.96 103.49,32.39 C109.14,33.39 119.89,29.29 118.7,37.14 C124.93,30.59 142.51,30.14 150.07,35.24 C167.81,47.18 154.71,88.76 158.67,109.39 Z" id="Path" fill="#fff"></path>
            <path d="M87.38,33.34 C89.63,58.45 86.59,82.98 87.38,109.39 C81.08,110.17 73.27,111.3 68.38,108.44 C68.53,84.7 68.97,58.44 69.38,32.39 C75.15,32.89 83.08,31.3 87.38,33.34 Z" id="Path" fill="#fff"></path>
            <path d="M297.88,33.34 C300.59,52.63 294.29,76.01 300.73,92.28 C303.502359,93.8005374 306.766501,94.1531362 309.79962,93.2597175 C312.832739,92.3662988 315.384556,90.3005834 316.89,87.52 C316.31,67.95 316.68,53.23 316.89,33.34 C324.28,32.6 327.35,32.96 334.95,33.34 L334.95,110.34 C328.29,110.03 318.85,112.5 319.74,104.63 C314.34,107.63 312.68,109.63 308.33,110.34 C269.93,116.69 280.47,65.11 280.76,33.34 C285.28,31.65 293.24,32.25 297.88,33.34 Z" id="Path" fill="#fff"></path>
            <path d="M365.37,37.18 C373.59,31.18 388.99,30.18 396.75,35.28 C406.64,41.72 413.23,94.48 397.69,106.58 C389.52,112.94 380.89,111.21 369.18,106.58 L369.18,140.8 C363.34,140.3 355.41,141.89 351.11,139.8 C352.31,101.8 348.59,66.8 351.11,32.38 C357.21,32.63 365.62,30.56 365.37,37.18 Z M369.18,54.29 C369.93,66.54 367.39,82.07 371.07,91.37 C374.77,94.05 381.55,93.53 385.34,91.37 C390.96,75.53 387.96,34.27 369.18,54.25 L369.18,54.29 Z" id="Shape" fill="#fff"></path>
            <path d="M253.88,82.1 C254.191101,81.1418408 254.448172,80.1669741 254.65,79.18 C255.039651,76.4651001 255.150227,73.7174316 254.98,70.98 C254.862308,67.383954 254.345812,63.8120831 253.44,60.33 C252.078452,55.8087335 250.11055,51.4928047 247.59,47.5 C245.88,44.66 244.65,41.97 242.5,39.42 C240.051651,36.5420887 236.88403,34.3647809 233.32,33.11 C231.48,32.41 228.19,32.77 227.61,32.65 C222.21,32.04 219.85,29.19 214.81,27.85 C209.77,26.51 201.9,27.99 197.14,29.18 C189.52,31.08 183.27,38.84 177.48,43.51 C171.69,48.18 170.87,54.23 169.2,61.18 C167.97,66.25 166.63,72.7 166.639944,77.89 C166.805369,80.7179468 167.367539,83.5085965 168.31,86.18 C169.04,88.67 170.47,91.18 171.31,93.51 C172.31,96.3 174.2,98.29 176.16,100.51 C177.187799,101.78984 178.296749,103.002336 179.48,104.14 C182.187084,106.638455 185.213448,108.766997 188.48,110.47 C191.630174,111.761891 194.856154,112.860594 198.14,113.76 C199.29,126.1 195.21,140.13 195.14,140.31 C194.700519,141.919905 195.306694,143.633481 196.660739,144.608928 C198.014785,145.584376 199.832131,145.616691 201.22,144.69 C201.81,144.28 214.08,135.53 221.05,115.33 C221.851055,114.890773 222.704512,114.554766 223.59,114.33 C229.38,113.04 233.73,110.23 238.73,107.33 C241.393087,105.738164 243.783476,103.729292 245.81,101.38 C248.596377,97.9323575 250.639205,93.9454384 251.81,89.67 C252.34,87.91 252.81,86.05 253.22,84.26 C253.43,83.56 253.65,82.83 253.88,82.1 Z" id="Path" fill="#fff"></path>
            <path d="M240.6,133.96 C244.41,137.64 247.14,143.32 247.150549,148.02 C247.23,157.39 238.55,165.39 230.82,169.52 C229.870355,170.06135 228.864381,170.497272 227.82,170.82 C214.52,175.18 194.6,174.34 182.96,166.47 C180.56,164.85 177.65,164.47 175.27,162.75 C173.452569,161.45801 171.743567,160.019907 170.16,158.45 C167.05,155.29 163.28,150.2 163.77,145.45 C164.65,137.03 170.77,126.99 176.08,124.37 C187.08,118.99 224.25,123.6 237.88,131.83 C238.76,132.45 239.72,133.2 240.57,133.93 M189.81,135.18 C186.72541,136.527542 184.591734,139.415625 184.21,142.76 C183.28,148.49 191.33,155.26 197.57,157.19 C203.81,159.12 211.57,159.54 217.67,156.46 C220.53,155.01 223.04,153.08 223.67,149.92 C224.26,146.92 224.01,142.7 221.76,140.4 C216.56,135.18 197.07,132.54 189.81,135.18" id="Shape" fill="#fff"></path>
            <path d="M191.33,86.6 C192.13,88.35 191.93,92.06 193.19,93.52 C194.5,94.79 196.59,94.25 198.27,95.6 C199.1,96.51 200.11,98.53 201.22,99.9 C201.969361,100.174514 202.61553,100.673985 203.07,101.33 C203.242517,101.565674 203.386834,101.820746 203.5,102.09 C205.210175,106.535887 206.127401,111.24725 206.21,116.01 C206.339751,120.179908 206.13241,124.353484 205.59,128.49 C208.084594,124.89887 210.199282,121.058247 211.9,117.03 C213.638663,112.897283 214.978094,108.607754 215.9,104.22 C216.009813,103.751215 216.199226,103.304741 216.46,102.9 C218.010871,102.545608 219.512178,102.00151 220.93,101.28 C227.53,97.96 232.29,91.28 234.56,84.86 C235.15,83.01 236.95,76.48 235.25,76.11 C235.62,74.41 236.99,71.74 236.59,69.88 L234.72,68.49 C231.48,59.69 232.51,56.75 224.3,50.83 C222.95,49.75 220.8,46.91 218.76,46.28 C211.04,43.62 206.18,46.92 201.55,49.09 L199.48,48.64 C198.48,48.81 198.61,50.82 197.84,51.64 C196.61,52.75 193.72,53.32 192.6,54.85 C186,65.29 188.72,79.31 191.3,86.59" id="Path" fill="#FFFFFF"></path>
            <path d="M231.39,48.94 C228.03,43.78 221.93,41.58 216,41.35 C212.9,41.22 210.19,42.08 207.21,42.35 C203.932199,42.7228997 200.793081,43.8824866 198.06,45.73 C195.041982,47.5271419 192.339393,49.8074511 190.06,52.48 C184.899743,58.8552204 181.817951,66.6591685 181.23,74.84 C180.81,83.18 183.31,90.18 190.64,96.18 C194.58,99.4 198.9,99.29 203.64,100.79 C207.562867,101.919406 211.578854,102.69583 215.64,103.11 C220.13,103.63 222.41,100.94 226.36,99.23 C237.03,94.59 240.68,86.08 240.67002,75.33 C240.67002,70.09 238.09,65.99 236.53,61.1 C235.17,56.62 234.04,53.02 231.39,48.94 Z" id="Path" fill="#231F20"></path>
            <polygon id="Path" stroke="#231F20" stroke-width="1.66" fill="#5DC6C6" points="195.72 60.89 213.78 53.45 218.9 16.96 257.26 1 254.28 24.24 235.88 31.78 228.34 86.97 209.94 94.52 193.18 80.79"></polygon>
            <polygon id="Path" stroke="#231F20" stroke-width="1.66" fill="#FFFFFF" points="193.3 61.41 211.09 53.85 215.72 16.69 254.19 0.32 251.57 22.59 233.06 29.9 225.98 85.44 206.64 93.34 190.67 81.44"></polygon>
            <polygon id="Path" fill="#A31D32" points="207.24 91.41 209.5 73.63 223.76 84.47"></polygon>
            <polygon id="Path" fill="#fff" points="209.98 72.97 212.24 55.19 226.51 66.03"></polygon>
            <polygon id="Path" fill="#3A8B8E" points="192.16 80.45 194.42 62.67 208.68 73.52"></polygon>
            <polygon id="Path" fill="#ED2224" points="208.84 73.9 206.59 91.68 192.32 80.83"></polygon>
            <polygon id="Path" fill="#FAA82C" points="226.67 66.42 224.41 84.2 210.14 73.35"></polygon>
            <polygon id="Path" fill="#5DC6C6" points="211.59 55.46 209.34 73.25 195.07 62.4"></polygon>
            <polygon id="Path" fill="#3A8B8E" points="229.05 47.57 214.78 36.73 212.53 54.51"></polygon>
            <polygon id="Path" fill="#ED2224" points="212.65 54.91 226.93 65.75 229.18 47.97"></polygon>
            <polygon id="Path" fill="#FAA82C" points="214.84 35.73 217.09 17.95 231.36 28.79"></polygon>
            <polygon id="Path" fill="#5DC6C6" points="231.52 29.18 229.26 46.96 215 36.12"></polygon>
            <polygon id="Path" fill="#fff" points="232.4 28.52 234.66 10.74 248.93 21.58"></polygon>
            <polygon id="Path" fill="#5DC6C6" points="251.61 3.46 249.36 21.24 235.09 10.39"></polygon>
            <polygon id="Path" fill="#A31D32" points="217.54 17.65 231.81 28.49 234.07 10.71"></polygon>
        </g>
    </g>
</svg>