<?xml version="1.0" encoding="UTF-8"?>
<svg id="Layer_2" data-name="Layer 2" xmlns="http://www.w3.org/2000/svg" xmlns:xlink="http://www.w3.org/1999/xlink" viewBox="0 0 108.98 111.93">
  <defs>
    <style>
      .cls-1 {
        fill: url(#linear-gradient);
      }

      .cls-1, .cls-2, .cls-3 {
        stroke-width: 0px;
      }

      .cls-2 {
        fill: url(#linear-gradient-2);
        fill-opacity: .2;
      }

      .cls-3 {
        fill: #3ecf8e;
      }
    </style>
    <linearGradient id="linear-gradient" x1="50.32" y1="470.15" x2="90.51" y2="453.3" gradientTransform="translate(0 533.58) scale(1 -1)" gradientUnits="userSpaceOnUse">
      <stop offset="0" stop-color="#249361"/>
      <stop offset="1" stop-color="#3ecf8e"/>
    </linearGradient>
    <linearGradient id="linear-gradient-2" x1="52.24" y1="511.77" x2="70.57" y2="477.27" gradientTransform="translate(0 533.58) scale(1 -1)" gradientUnits="userSpaceOnUse">
      <stop offset="0" stop-color="#000"/>
      <stop offset="1" stop-color="#000" stop-opacity="0"/>
    </linearGradient>
  </defs>
  <g id="Layer_1-2" data-name="Layer 1">
    <path class="cls-1" d="M63.68,110.07c-2.86,3.6-8.66,1.63-8.73-2.97l-1.01-67.25h45.22c8.19,0,12.76,9.46,7.67,15.87l-43.15,54.35Z"/>
    <path class="cls-2" d="M63.68,110.07c-2.86,3.6-8.66,1.63-8.73-2.97l-1.01-67.25h45.22c8.19,0,12.76,9.46,7.67,15.87l-43.15,54.35Z"/>
    <path class="cls-3" d="M45.29,1.86c2.86-3.6,8.66-1.63,8.73,2.97l.44,67.25H9.81c-8.19,0-12.76-9.46-7.67-15.87L45.29,1.86Z"/>
  </g>
</svg>