<svg xmlns="http://www.w3.org/2000/svg" viewBox="0 0 149 50" width="149" height="50" fill="#fff"><path d="M39.733 9.685v8.692h4.555c4.288 0 4.62-.034 5.65-.578 1.923-1.014 2.791-2.95 2.224-4.958-.517-1.829-1.717-2.836-4.508-3.786-2.023-.688-2.457-.977-2.457-1.635 0-.632-.316-.587-1.223.176-.901.759-.99 1.614-.246 2.359.71.71 1.721 1.093 4.2 1.594 3.591.726 4.829 1.766 3.861 3.244-.698 1.066-1.296 1.207-5.537 1.306l-4.035.094V1.49h2.574c2.228 0 2.662.069 3.228.515 1.314 1.033.663 3.001-1.4 4.226-.714.424-1.131.721-.926.659 4.164-1.256 5.563-2.201 5.563-3.759 0-1.829-.983-2.124-7.115-2.132L39.733.993v8.692m67.299-8.053c-1.165.41-1.493.615-1.18.736.365.142.435.496.435 2.218v2.05l-1.49.135c-3.694.335-6.01 3.374-5.644 7.405.073.799.338 1.874.591 2.389 1.186 2.42 4.368 2.772 6.024.666l.519-.66v1.806h2.731V9.685c0-4.78-.083-8.676-.186-8.657-.102.019-.913.291-1.8.604M71.706 5.978c-1.027.541-1.121.757-.54 1.239.215.178.63.778.922 1.334 1.081 2.05.5 6.662-1.093 8.688-1.11 1.411-1.507.642-3.069-5.94l-1.06-4.47-1.295-.076c-1.148-.067-1.281-.024-1.169.373.07.246.367 1.566.662 2.931 1.244 5.77 2.052 7.92 3.13 8.33 1.55.589 2.616.012 3.848-2.085.725-1.231.746-1.246.591-.409-.556 3.006-1.479 4.449-3.425 5.355-1.504.701-3.678.807-5.022.246l-.861-.36v1.209c0 1.169.03 1.22.895 1.505 2.314.764 5.344-.832 7.218-3.8 1.494-2.367 2.814-7.392 2.814-10.715 0-1.515-.764-3.631-1.366-3.784-.137-.034-.668.159-1.18.429m-14.341.756c-2.237.673-3.485 2.5-3.673 5.375-.152 2.33.34 3.68 1.815 4.978 1.637 1.441 3.869 1.908 6.124 1.281.812-.225.961-.397 1.34-1.55.234-.714.484-1.465.554-1.67.082-.239-.087-.177-.471.171-.329.299-1.113.681-1.743.849-1.385.371-2.968.016-4.093-.916-.712-.59-.715-.604-.226-.985.274-.213 1.615-.949 2.98-1.636 1.366-.687 2.669-1.416 2.896-1.62 1.064-.954.618-2.866-.887-3.796-1.049-.648-3.287-.882-4.616-.481m21.278.082c-1.968.702-2.927 2.284-3.094 5.104-.186 3.142.682 5.143 2.669 6.146 2.03 1.026 4.2.636 5.65-1.015.945-1.076 1.367-2.474 1.37-4.537.007-4.422-2.967-6.991-6.595-5.698m10.645-.055c-.267.15-1.105.468-1.863.707-.757.238-1.138.444-.845.456.292.012.6.199.683.415.083.217.15 2.563.15 5.215v4.823h2.441l.083-4.036c.094-4.54.384-5.521 1.943-6.581 1.014-.689 1.595-.705 2.238-.062.465.465.497.828.497 5.588v5.091h2.483V8.233l-.635-.756c-1.515-1.8-5.073-.914-6.1 1.52l-.342.812-.124-1.66c-.117-1.56-.154-1.644-.609-1.388m-29.99.459c.982.343 1.544 1.209 1.544 2.382 0 .805-.193 1.115-1.457 2.344-.801.779-1.816 1.603-2.257 1.83-.756.392-.818.39-1.134-.038-.816-1.103-1.078-3.558-.522-4.888.682-1.631 2.096-2.233 3.826-1.63m21.674.713c1.305 1.372 2.005 3.366 2.141 6.098.138 2.755-.311 3.926-1.549 4.047-1.065.105-1.932-.666-2.821-2.505-1.837-3.802-1.471-8.62.656-8.62.424 0 .958.333 1.573.98m25.315 3.576c0 4.19-.039 4.591-.481 4.991-.633.573-2.022.594-2.862.043-1.061-.695-1.448-1.943-1.326-4.27.084-1.609.238-2.239.767-3.141.78-1.332 1.971-2.169 3.095-2.174l.807-.005v4.556m-74.389 3.849c-.415.369-3.12 1.358-4.934 1.805-.967.237-1.476.44-1.131.45.346.01.877.193 1.18.405l.552.387v30.268H32.532v-6.817c0-7.257.15-8.626 1.174-10.69 1.208-2.434 3.108-3.849 5.167-3.849.936 0 1.28.133 1.873.726l.726.725v19.905h4.966l-.007-9.25c-.008-8.973-.024-9.291-.559-10.606-.408-1.002-.832-1.552-1.628-2.11-.952-.669-1.315-.766-3.151-.843-1.788-.075-2.258-.003-3.394.519-2.231 1.025-3.979 2.885-4.791 5.096-.301.819-.343-.087-.359-7.701-.009-4.746-.107-8.63-.216-8.63s-.305.095-.435.21M.248 32.035v16.638h5.069c6.103 0 8.111-.316 10.979-1.73 3.514-1.732 5.867-4.841 7.084-9.36.748-2.78.748-8.316 0-11.096-1.216-4.514-3.567-7.623-7.084-9.366-2.792-1.383-4.859-1.705-11.019-1.716l-5.029-.008v16.638m9.578-15.872c4.881.894 7.971 4.742 8.933 11.128.979 6.491-.091 13.208-2.653 16.664-2.127 2.87-4.341 3.958-8.47 4.161l-2.669.131V15.893h1.692c.931 0 2.356.122 3.167.27m45.925 10.012c-2.522.799-4.748 2.569-5.603 4.452-.643 1.415-.607 1.656.247 1.656 1.605 0 7.48 1.532 7.458 1.945-.005.091-.967.78-2.138 1.53-4.802 3.077-7.186 7.079-5.961 10.009.469 1.124 1.874 2.279 3.38 2.779 1.753.582 5.075.423 7.013-.337 1.803-.708 3.704-2.413 4.524-4.06l.641-1.285V48.673h2.512c2.483 0 2.511-.006 2.365-.558-.081-.308-.664-2.738-1.295-5.402-2.953-12.466-3.57-14.297-5.252-15.579a7.784 7.784 0 0 0-1.744-.953c-1.173-.419-4.835-.422-6.147-.006m20.736.315c-.752.343-2.316.885-3.477 1.204-1.185.325-1.811.588-1.428.598.376.01.906.242 1.18.515.479.479.496.827.496 10.181v9.685H78.225l.001-7.139c.001-4.464.105-7.512.277-8.132.36-1.296 2.028-2.964 3.324-3.324 1.385-.384 1.909-.351 3.636.231.832.28 1.542.476 1.579.435.195-.217 1.613-3.776 1.613-4.05 0-.906-4.119-1.185-5.856-.396-1.768.803-3.271 2.667-4.214 5.227-.297.806-.327.599-.343-2.408-.009-1.81-.101-3.281-.203-3.27-.103.011-.801.301-1.552.643m18.5.042c-.819.336-2.439.869-3.6 1.183-1.161.314-1.816.577-1.456.583.361.007.919.226 1.242.487l.586.474.071 9.707.07 9.707h4.702l.004-6.643c.006-8.549.37-10.411 2.519-12.859 2.216-2.524 5.695-2.48 6.407.082.154.554.256 4.596.257 10.17l.001 9.25h4.718l.005-6.643c.005-8.549.37-10.411 2.519-12.859 2.216-2.524 5.695-2.48 6.406.082.154.554.256 4.596.257 10.17l.002 9.25h4.718v-9.275c0-6.274-.091-9.549-.283-10.12-.453-1.355-1.442-2.48-2.647-3.013-1.524-.674-4.641-.533-6.22.281-1.575.812-3.211 2.571-4.023 4.325l-.711 1.536-.011-1.142c-.023-2.323-1.126-4.197-2.942-5-1.533-.678-4.641-.534-6.238.29-1.585.818-3.34 2.732-4.026 4.392l-.588 1.423-.124-3.226-.125-3.225-1.49.613m38.74-.371c-2.929.966-5.172 3.065-5.944 5.564-.155.501-.088.559.651.564 1.025.006 4.6.802 6.383 1.421l1.337.464-2.498 1.663c-4.978 3.314-7.121 6.972-5.814 9.925.991 2.242 3.487 3.326 7.167 3.113 3.284-.19 6.291-2.017 7.668-4.661l.588-1.128.012 2.794.011 2.793h2.484c1.365 0 2.483-.097 2.483-.216 0-.244-2.031-8.735-3.394-14.187-1.33-5.325-2.044-6.659-4.149-7.758-1.276-.666-5.402-.873-6.985-.351m-70.395 1.656c.63.322 1.158.849 1.48 1.48.782 1.534.681 1.832-.804 2.351-.717.251-2.142.842-3.166 1.313l-1.863.856-2.059-.705c-1.698-.581-2.086-.812-2.213-1.314-.311-1.24 1.559-3.404 3.559-4.117 1.471-.524 3.9-.459 5.066.136m77.966-.041c1.093.587 1.716 1.426 1.901 2.56.14.865.111.908-.814 1.201-.528.167-1.986.748-3.242 1.29l-2.282.988-1.913-.704c-2.43-.894-2.651-1.215-1.858-2.709.608-1.148 1.992-2.29 3.369-2.781 1.257-.448 3.87-.364 4.839.155m-76.009 8.17c-.016 2.972-.087 3.934-.251 3.37-.297-1.028-2.472-3.398-3.868-4.216-.603-.353-1.063-.672-1.022-.71.504-.466 4.378-2.432 5.102-2.59.034-.007.052 1.858.039 4.146m77.999-.158v4.002l-.691-1.332c-.518-1-1.142-1.671-2.5-2.689-1.674-1.254-1.776-1.382-1.358-1.702.396-.303 4.275-2.28 4.474-2.28.041 0 .075 1.8.075 4.001m-80.787 1.059c2.875 2.525 3.055 5.804.481 8.762-2.081 2.391-5.272 2.734-7.471.803-2.401-2.107-1.597-5.969 2.015-9.68l1.901-1.955.989.554c.544.304 1.482.986 2.085 1.516m76.579-1.129c4.198 2.674 4.889 6.573 1.776 10.025-1.554 1.724-3.56 2.322-5.539 1.651-1.382-.469-2.243-1.215-2.766-2.396-.611-1.381-.454-2.997.481-4.975.715-1.51 3.877-5.008 4.528-5.008.229 0 .913.316 1.52.703"></path></svg>