<svg xmlns="http://www.w3.org/2000/svg" viewBox="1.05 0.93 48.16 36.89">
    <path d="M44.076 1.213c-3.394.904-6.123 2.506-8.789 5.162-4.204 4.187-6.824 9.678-7.655 16.042-.335 2.572-.371 5.218-.09 6.66.874 4.486 4.371 7.91 8.812 8.631.995.161 2.723.159 3.729-.004 3.141-.509 5.984-2.465 7.598-5.228.49-.839 1.049-2.222 1.303-3.226.199-.786.222-1.028.223-2.375.001-1.617-.093-2.267-.511-3.516-.707-2.115-2.278-4.215-4.152-5.547-1.073-.763-2.795-1.476-4.077-1.687l-.324-.054.053-.598c.116-1.326.65-2.96 1.395-4.267.85-1.492 2.398-3.349 3.811-4.573.764-.661 2.605-1.966 2.774-1.966.041 0 .074-.041.074-.091 0-.076-2.418-2.914-2.951-3.463l-.174-.179-1.049.279M17.833 1.17c-2.82.743-5.439 2.067-7.5 3.79-.788.659-2.571 2.481-3.18 3.25-2.618 3.306-4.608 7.574-5.453 11.697-.515 2.511-.646 3.779-.653 6.301-.004 1.877.02 2.368.146 2.959.456 2.125 1.512 4.15 2.909 5.575 1.48 1.51 3.644 2.61 5.835 2.966 1 .162 2.756.16 3.698-.003.873-.152 2.461-.667 3.209-1.041a10.67 10.67 0 0 0 4.814-4.872c1.03-2.103 1.397-3.973 1.179-6.001-.295-2.744-1.276-4.761-3.316-6.819-1.433-1.446-3.292-2.446-5.21-2.803l-.564-.105.048-.428c.157-1.381.616-2.964 1.193-4.111 1.21-2.407 3.694-5.043 6.158-6.536l.687-.417-1.482-1.765c-1.124-1.338-1.532-1.77-1.688-1.783-.112-.01-.486.056-.83.146"/>
</svg>