<svg width="366" height="145" viewBox="0 0 366 145" fill="none" xmlns="http://www.w3.org/2000/svg">
<path fill-rule="evenodd" clip-rule="evenodd" d="M43.2267 0.0791016C24.8902 0.0791016 12.7212 13.7214 12.7212 34.1381L12.716 34.1433C12.716 54.9175 24.9734 68.7411 43.4038 68.7411C50.3002 68.7411 58.019 66.7523 62.5576 63.8621V51.1263C58.5655 53.8351 52.4809 55.6427 47.4895 55.6427C36.5074 55.6427 29.153 46.9725 29.153 34.3247C29.153 21.6767 36.419 13.1827 47.1304 13.1827C52.3977 13.1827 58.2063 14.6278 61.8392 16.8859V4.50741C57.5714 1.88667 50.3054 0.0791016 43.2267 0.0791016ZM100.6 42.1817L122.387 0.985594H105.503L92.6101 27.4569L79.8114 0.985594H62.927L84.7144 42.1817V67.8401H100.6V42.1817ZM119.394 34.1381C119.394 13.7214 131.558 0.0791016 149.895 0.0791016C156.978 0.0791016 164.239 1.88667 168.507 4.50741V16.8859C164.874 14.6278 159.066 13.1827 153.798 13.1827C143.087 13.1827 135.821 21.6767 135.821 34.3247C135.821 46.9725 143.175 55.6427 154.157 55.6427C159.149 55.6427 165.233 53.8351 169.225 51.1263V63.8621C164.687 66.7523 156.968 68.7411 150.072 68.7411C131.641 68.7411 119.384 54.9175 119.384 34.1433L119.394 34.1381ZM216.891 67.8349L219.161 54.7363H192.106V0.985594H176.127V67.8349H216.891ZM223.248 0.985594H239.226V67.8349H223.248V0.985594ZM258.286 0.985373H247.58V67.8347H263.287L262.924 30.4349L291.338 67.8347H301.866V0.985373H286.157L286.522 38.3851L258.286 0.985373ZM362.145 34.3195V65.4885C356.97 67.4773 348.347 68.7411 340.357 68.7411C320.926 68.7411 308.035 54.9175 308.035 34.1433C308.035 13.3692 321.291 0.0791016 341.079 0.0791016C348.523 0.0791016 356.331 1.70539 360.51 4.14485V16.6995C356.335 14.5294 349.522 13.1776 343.532 13.1776C332.091 13.1776 324.466 21.6717 324.466 34.3195C324.466 46.9673 331.274 55.6375 341.444 55.6375C342.99 55.6375 344.531 55.5495 346.165 55.3681V34.3195H362.145ZM101.536 118.965L103.295 129.199C106.679 131.152 113.107 132.498 119.467 132.498C131.105 132.498 138.751 126.169 138.751 116.676C138.751 109.673 134.827 105.768 128.331 103.344L118.317 99.6407C115.948 98.8329 114.528 97.4861 114.528 95.4663C114.528 92.7731 117.031 91.0897 120.82 91.0897C125.557 91.0897 131.579 92.6383 135.909 94.9277V84.9627C131.443 82.8081 124.948 81.3267 119.535 81.3267C109.114 81.3267 102.213 87.4539 102.213 96.6783C102.213 103.142 105.528 107.047 111.956 109.404L122.647 113.309C124.88 114.117 126.504 115.531 126.504 117.753C126.504 120.917 123.256 122.735 118.384 122.735C113.039 122.735 106.34 121.187 101.536 118.965ZM141.39 106.913C141.39 91.5611 150.795 81.3267 164.869 81.3267C178.943 81.3267 188.28 91.5611 188.28 106.913C188.28 122.264 178.943 132.498 164.869 132.498C150.795 132.498 141.39 122.264 141.39 106.913ZM175.965 106.913C175.965 97.4189 171.5 91.0897 164.869 91.0897C158.238 91.0897 153.704 97.4189 153.704 106.913C153.704 116.406 158.17 122.735 164.869 122.735C171.567 122.735 175.965 116.406 175.965 106.913ZM205.466 103.007V91.7629H226.036L227.728 81.9999H193.558V131.825H205.466V112.77H224.411V103.007H205.466ZM267.717 91.7629H254.455V131.825H242.615V91.7629H229.285V81.9999H267.717V91.7629ZM283.211 81.9999H271.303V131.825H283.211V81.9999ZM325.094 122.062V131.825H289.436V81.9999H324.62L322.93 91.7629H301.345V101.728H321.644V111.491H301.345V122.062H325.094ZM327.865 118.965L329.624 129.199C333.007 131.152 339.435 132.498 345.796 132.498C357.434 132.498 365.079 126.169 365.079 116.676C365.079 109.673 361.154 105.768 354.658 103.344L344.645 99.6407C342.276 98.8329 340.857 97.4861 340.857 95.4663C340.857 92.7731 343.359 91.0897 347.148 91.0897C351.885 91.0897 357.907 92.6383 362.237 94.9277V84.9627C357.771 82.8081 351.275 81.3267 345.862 81.3267C335.442 81.3267 328.541 87.4539 328.541 96.6783C328.541 103.142 331.856 107.047 338.284 109.404L348.975 113.309C351.209 114.117 352.831 115.531 352.831 117.753C352.831 120.917 349.584 122.735 344.713 122.735C339.366 122.735 332.668 121.187 327.865 118.965ZM94.3223 95.3057C92.9795 93.9693 91.4439 92.8973 89.7577 92.1203C86.26 90.5199 82.45 90.4475 78.7441 91.9079C75.5953 93.1459 72.6076 95.4765 70.2863 98.4909C67.9389 93.5653 62.6924 91.7163 56.5039 93.6535C53.4071 94.3629 50.3674 95.7095 46.9426 97.8745C43.1692 97.1597 38.7449 97.3877 33.436 98.5737C34.2844 96.5589 35.0442 94.8913 35.8095 93.3633C40.3064 84.6259 44.517 79.9749 47.9835 79.9023C49.7896 79.8661 51.4291 81.1195 52.8501 83.6211C53.0687 84.0355 53.5372 84.2115 53.9848 84.0457C54.4325 83.8801 54.6717 83.4449 54.5676 82.9943C53.9275 79.6849 51.2157 76.2613 47.2549 76.1111H47.2393C39.8848 76.1111 33.5245 85.0609 30.3859 90.4009C28.3093 93.9279 26.675 97.6725 25.3528 100.889C18.0141 103.515 11.2946 107.089 5.38192 111.507C5.02278 111.755 4.88226 112.226 5.05402 112.625C5.2518 113.097 5.79831 113.314 6.27194 113.117L8.39553 112.221C9.68111 111.683 10.2537 111.439 10.4983 111.299L10.5087 111.33L11.2061 111.051L11.2481 111.034L11.2521 111.033C12.4021 110.576 13.7236 110.051 14.7715 109.647C17.5092 108.591 20.2625 107.632 22.9691 106.793C21.5436 110.571 20.2537 114.443 19.0007 118.204L18.9301 118.416L18.5623 119.518C18.1345 120.801 17.7079 122.08 17.275 123.357C16.0779 127.086 14.7142 131.312 12.3668 134.922C10.8991 137.331 9.51977 138.9 7.88544 140.019C6.6363 140.925 4.54915 141.541 3.14903 140.904C2.33189 140.531 1.87386 139.796 1.78538 138.719C1.75935 138.206 1.34295 137.926 0.947394 137.916C0.489366 137.911 0.11982 138.216 0.0729799 138.677L0.0261363 139.133C-0.27054 141.785 2.00919 143.727 4.2889 144.007C4.69489 144.058 5.09566 144.079 5.49122 144.079C9.92574 144.079 13.4702 141.106 15.2659 139.221C18.8936 135.274 20.8716 130.276 22.7816 125.444C23.1356 124.548 23.4895 123.652 23.8539 122.772C25.0458 119.933 26.17 116.991 27.2526 114.148L27.268 114.108C28.2262 111.598 29.2151 109.007 30.2403 106.519L30.9846 104.628C32.1451 104.375 33.5036 104.1 34.2687 103.96C36.2934 103.593 38.5367 103.246 40.6238 102.976C37.2565 106.783 35.8302 111.196 36.5954 115.474C37.2823 119.467 40.1762 122.999 43.9653 124.465C47.1143 125.672 50.3674 125.299 53.1259 123.409C56.4674 121.119 58.6223 116.919 58.6118 112.713C58.8357 107.001 55.8638 101.557 51.3354 99.2833C54.1774 97.5275 56.9359 96.6367 59.1375 96.7765C61.615 96.9371 63.1037 98.9001 63.7699 100.06C65.9923 103.758 65.8935 108.487 65.503 112.615C65.2788 114.593 64.8699 116.536 64.4375 118.59L64.41 118.721C64.2123 119.654 64.0146 120.591 63.8323 121.534C63.7438 121.989 63.9937 122.414 64.4361 122.57C64.8837 122.73 65.347 122.549 65.5656 122.14C66.8356 119.756 67.8651 117.224 68.8622 114.772L68.8862 114.713L68.9328 114.598C69.7664 112.546 70.6276 110.428 71.6239 108.415C74.4606 102.697 77.3701 98.9363 80.5189 96.9111C83.9647 94.5649 88.7115 94.5495 93.224 96.8749C93.5988 97.0511 94.0412 96.9733 94.3328 96.6833C94.5201 96.4969 94.6242 96.2483 94.6189 95.9841C94.6189 95.7199 94.5097 95.4713 94.3119 95.2901L94.3223 95.3057ZM54.4792 112.423C54.2606 114.635 52.8241 116.888 50.8982 118.032C49.8574 118.654 48.2177 119.229 46.3336 118.452C42.2322 116.707 41.5243 112.076 42.9506 108.399C43.5803 106.648 44.9803 104.654 46.8905 102.779C47.6973 102.878 48.4157 103.033 49.0767 103.246H49.0819C52.9957 104.401 54.8955 108.818 54.474 112.428L54.4792 112.423ZM56.0047 127.257C58.0607 127.324 60.4809 127.474 62.8909 128.049L62.8857 128.06C63.38 128.179 63.6819 128.676 63.5621 129.168C63.4685 129.557 63.1249 129.836 62.719 129.867C57.5351 130.556 51.4975 131.421 45.6575 132.944C41.6394 133.928 37.5484 135.274 33.4834 136.953C32.8414 137.185 32.1812 137.476 31.5409 137.758L31.4067 137.818C30.7249 138.118 30.0274 138.424 29.3405 138.677C29.1947 138.734 29.0437 138.76 28.8979 138.76C28.4192 138.76 27.9611 138.47 27.7686 137.999C27.5759 137.517 27.7112 136.968 28.1017 136.631C28.7054 136.114 29.3092 135.622 29.887 135.166C30.6597 134.494 31.8349 133.771 32.8831 133.127L32.9369 133.094C33.0269 133.039 33.116 132.984 33.2034 132.931C33.3937 132.815 33.576 132.703 33.7437 132.597C38.0793 130.214 42.8625 128.609 47.9684 127.816C50.4877 127.412 53.2671 127.221 56.0047 127.257Z" fill="white"/>
</svg>
