<svg width="498" height="111" viewBox="0 0 498 111" fill="none" xmlns="http://www.w3.org/2000/svg">
<g clip-path="url(#clip0_162_15)">
<path d="M128.246 102.41H0V104.163H128.246V102.41Z" fill="white"/>
<path d="M498 102.41H369.754V104.163H498V102.41Z" fill="white"/>
<path d="M473.1 74.7998H465.167V77.2102H473.1V74.7998Z" fill="white"/>
<path d="M463.404 69.3218C463.404 70.4174 463.404 71.513 463.845 72.6086C464.286 73.266 464.947 73.4851 465.608 73.4851H466.489C467.811 73.7042 468.252 74.1425 468.252 75.2381C468.252 75.6763 468.032 76.1146 467.811 76.5528C467.371 76.772 466.93 76.9911 466.489 76.9911H451.946C451.065 77.2102 450.404 76.5528 450.183 75.6763C450.183 75.4572 450.183 75.2381 450.183 75.2381C450.183 74.1425 450.844 73.7042 451.946 73.4851H452.387C453.048 73.4851 453.709 73.0469 454.15 72.6086C454.37 71.513 454.59 70.4174 454.59 69.3218V10.8158C454.811 9.93929 454.59 9.06279 453.929 8.62455C453.048 8.1863 452.166 7.96718 451.065 7.96718C449.963 7.74805 449.302 7.3098 449.302 6.21419C449.302 5.77594 449.302 5.33769 449.742 5.11857C450.404 4.68032 450.844 4.4612 451.505 4.24208L459.438 0.955222L460.54 0.516976C460.981 0.297852 461.201 0.297852 461.642 0.297852C462.082 0.297852 462.743 0.516975 462.964 0.955222C463.184 1.83172 463.404 2.48909 463.404 3.36558V69.3218Z" fill="white"/>
<path d="M479.931 77.8678C481.253 78.087 482.355 78.087 483.677 78.087C487.423 78.3061 491.169 77.2105 494.034 74.8001C496.678 72.6089 498 69.1029 498 65.5969C498 62.9674 497.119 60.338 495.576 58.3659C493.373 55.7364 490.508 53.5451 487.423 51.7921L483.677 49.6009C479.931 47.1906 477.948 45.2184 477.948 43.2463C477.948 41.9316 478.388 40.836 479.49 40.1786C480.592 39.3021 481.914 38.8639 483.236 38.8639C484.779 38.8639 486.321 39.3021 487.864 40.1786C489.406 41.0551 490.728 42.3698 491.61 43.9037L492.711 45.4376C492.932 46.0949 493.813 46.5332 494.474 46.7523C494.915 46.7523 495.356 46.5332 495.796 46.3141C496.237 45.8758 496.237 45.4376 496.237 44.9993C496.237 44.7802 496.237 44.3419 496.237 44.1228L496.017 42.8081L494.915 37.1109C494.915 36.4535 494.474 35.7961 494.254 35.1388C494.034 34.7005 493.593 34.7005 492.932 34.7005C492.491 34.7005 492.05 34.9196 491.61 35.1388L490.949 35.577C490.508 36.0153 490.067 36.2344 489.626 36.2344C489.406 36.2344 489.406 36.2344 489.186 36.2344L488.525 35.577C486.321 34.7005 483.897 34.0431 481.473 34.0431C478.168 33.824 474.863 34.9196 472.219 37.1109C469.795 39.083 468.473 41.9316 468.473 44.9993C468.473 48.5053 470.235 51.7921 473.1 53.9834L474.202 54.8599C474.642 55.079 475.083 55.5172 475.524 55.7364L477.287 56.832L479.931 58.585C481.914 59.8997 483.457 60.7762 484.558 61.6527C485.44 62.3101 486.542 62.9674 487.203 63.8439C487.643 64.2822 488.084 64.9396 488.525 65.5969C488.745 66.2543 488.745 66.9117 488.745 67.7882C488.745 69.322 488.084 70.8559 486.982 71.7324C485.66 72.828 484.118 73.4854 482.575 73.2663C480.592 73.2663 478.829 72.828 477.066 71.7324C475.303 70.8559 473.981 69.5411 472.88 68.0073L471.337 65.816C470.896 65.1587 470.235 64.7204 469.354 64.7204C468.913 64.7204 468.252 64.9396 467.811 65.1587C467.371 65.5969 467.15 66.0352 467.15 66.4734C467.15 66.6925 467.15 66.9117 467.15 67.1308C467.15 67.3499 467.15 67.7882 467.371 68.0073L468.693 75.4575C468.693 75.8957 468.913 76.334 468.913 76.5531H473.1" fill="white"/>
<path d="M33.2735 8.18652C37.9009 8.18652 42.5284 8.84389 46.9354 10.5969C50.9018 12.1307 54.4275 14.5411 57.2921 17.6088C60.1567 20.8957 62.3602 24.6208 63.6823 28.7841C65.2248 33.6048 65.8859 38.6447 65.8859 43.6845C65.8859 48.7244 65.2248 53.7642 63.6823 58.3658C62.3602 62.5292 59.9363 66.2543 57.0717 69.5411C54.2071 72.6088 50.6814 75.0192 46.7151 76.5531C42.308 78.306 37.6806 79.1825 33.0531 78.9634C28.4257 78.9634 23.7983 78.306 19.3912 76.5531C15.4248 75.0192 12.1195 72.6088 9.25489 69.5411C6.39029 66.2543 4.18675 62.5292 2.64427 58.5849C1.1018 53.9833 0.22038 48.9435 0.440734 44.1228C0.440734 39.0829 1.1018 34.0431 2.64427 29.2224C3.9664 25.059 6.16994 21.3339 9.25489 18.0471C12.1195 14.9794 15.6452 12.569 19.6115 11.0351C23.7983 9.06302 28.4257 8.18652 33.2735 8.18652ZM33.0531 14.1029C26.8832 13.8837 20.9337 16.7323 17.6283 21.9913C13.8823 27.2503 12.1195 34.7005 12.1195 44.1228C12.1195 48.2861 12.5602 52.2303 13.4416 56.1746C14.323 59.4614 15.6452 62.5292 17.408 65.3778C20.7133 70.4176 26.4425 73.2662 32.3921 73.0471C40.7655 73.0471 46.9354 68.8837 50.4611 60.3379C51.5629 57.7084 52.2239 55.2981 52.6646 52.4495C53.3257 49.6009 53.5461 46.5331 53.5461 43.6845C53.5461 39.9594 53.1053 36.0152 52.2239 32.2901C51.7832 29.0033 50.6814 25.9355 49.139 23.0869C45.8337 17.1706 39.6637 13.8837 33.0531 14.1029Z" fill="white"/>
<path d="M182.453 72.3894C184.657 70.4173 186.64 68.2261 188.403 65.8157L188.843 65.3775V69.9791C188.843 71.0747 188.843 72.1703 188.403 73.2659C187.962 73.9233 187.301 74.1424 186.64 74.1424H186.419C185.318 74.3615 184.657 74.7998 184.657 75.8954C184.436 76.7719 185.097 77.4293 185.758 77.6484C185.979 77.6484 186.199 77.6484 186.419 77.6484H200.522C200.963 77.6484 201.404 77.4293 201.844 77.2102C202.285 76.7719 202.285 76.3337 202.285 75.8954C202.285 74.7998 201.624 74.3615 200.522 74.1424H199.641C198.98 74.1424 198.319 73.7042 197.878 73.2659C197.657 72.1703 197.437 71.0747 197.437 69.9791V52.8874C197.217 50.0388 197.878 47.4094 199.2 44.999C200.081 43.246 202.065 42.1504 204.048 41.9313C204.929 41.9313 205.811 42.1504 206.692 42.5886L208.234 43.6843C208.455 43.9034 208.896 44.1225 209.116 43.9034C209.336 43.9034 209.997 43.4651 210.658 42.8078L212.642 40.6165C213.082 40.1783 213.523 39.3018 213.523 38.6444C213.523 37.7679 212.862 36.8914 211.54 36.0149C210.218 35.1384 208.455 34.7002 206.912 34.7002C202.505 34.7002 199.2 37.1106 197.217 41.7121V37.987C197.217 37.1106 197.217 36.2341 196.996 35.5767C196.556 35.1384 196.115 34.9193 195.674 34.9193C195.454 34.9193 195.013 34.9193 194.793 35.1384L193.471 35.7958L185.538 39.0827C184.877 39.3018 184.216 39.5209 183.775 39.9592C183.555 40.1783 183.334 40.6165 183.334 41.0548C183.334 42.1504 183.996 42.5886 185.318 42.8078C186.419 42.8078 187.301 43.0269 188.182 43.4651C188.623 44.3416 188.843 45.4372 188.843 46.5329V53.7639C187.08 58.5847 186.199 61.4333 182.012 66.0349C181.792 66.4731 180.69 67.3496 180.25 67.7878C179.809 68.2261 179.809 68.2261 179.368 68.4452C177.826 69.9791 176.063 71.2938 173.859 72.1703C172.096 73.0468 169.893 73.4851 167.91 73.4851C164.164 73.7042 160.638 71.9512 158.655 69.1026C156.231 65.3775 154.909 60.995 155.35 56.6125C155.129 52.2301 156.231 47.8476 158.214 44.1225C159.757 41.2739 162.842 39.5209 166.147 39.5209C168.13 39.5209 169.893 40.1783 171.215 41.493C172.537 42.8078 173.198 44.5608 173.198 46.3137C173.198 47.4094 172.978 48.505 172.317 49.3815C171.435 50.4771 170.334 51.3536 169.011 52.011L161.299 56.6125C160.638 57.0508 159.977 57.489 159.316 58.1464C158.875 58.5847 158.875 59.0229 158.875 59.6803C158.875 60.3376 159.096 60.995 159.536 61.4333C159.977 61.8715 160.638 62.0906 161.299 62.0906C161.519 62.0906 161.96 62.0906 162.18 61.8715C162.621 61.6524 163.062 61.4333 163.503 61.2141L178.266 52.4492C181.351 50.6962 182.894 48.7241 182.894 46.9711C182.894 45.4372 182.453 43.9034 181.572 42.5886C180.69 41.0548 179.368 39.5209 177.826 38.4253C174.52 36.0149 170.334 34.7002 166.147 34.7002C163.282 34.7002 160.418 35.1384 157.773 36.2341C155.35 37.1106 153.146 38.6444 151.163 40.6165C149.18 42.5886 147.857 44.999 146.976 47.6285C145.874 50.4771 145.434 53.5448 145.434 56.6125C145.434 59.6803 145.874 62.748 146.976 65.5966C147.857 68.2261 149.4 70.4173 151.383 72.3894C153.366 74.3615 155.57 75.8954 157.994 76.7719C160.858 77.8675 163.723 78.3058 166.808 78.3058C171.656 78.5249 176.504 76.7719 180.47 73.7042" fill="white"/>
<path d="M251.864 43.0271L252.085 44.3418C252.085 44.5609 252.305 44.9992 252.085 45.2183C252.085 45.6565 251.864 46.0948 251.644 46.533C251.203 46.7522 250.763 46.9713 250.322 46.9713C249.441 46.9713 248.78 46.533 248.559 45.6565L247.457 44.3418C246.356 42.8079 245.254 41.7123 243.711 40.6167C242.389 39.7402 240.847 39.302 239.084 39.302C237.762 39.302 236.219 39.7402 235.338 40.6167C234.457 41.4932 233.795 42.5888 233.795 43.6844C233.795 45.6565 235.558 47.8478 239.525 50.039L243.271 52.2303C246.356 53.7641 249.22 55.9554 251.424 58.804C252.966 60.7761 253.848 63.4055 253.848 66.035C254.068 69.541 252.526 72.8279 249.881 75.2382C247.017 77.4295 243.271 78.7442 239.525 78.5251C238.203 78.5251 237.101 78.5251 235.779 78.306C234.677 78.0868 233.575 77.8677 232.473 77.6486L231.372 77.2103C231.151 77.2103 230.931 77.2103 230.711 77.2103C230.049 77.2103 229.609 77.6486 229.168 77.8677C228.727 78.0868 228.507 78.5251 228.066 78.7442C227.846 78.9633 227.405 78.9633 227.185 78.9633C226.083 78.9633 225.422 78.0868 225.202 76.553L223.88 69.1028C223.88 68.6645 223.88 68.4454 223.659 68.2263C223.659 68.0071 223.659 67.788 223.659 67.5689C223.659 67.1306 223.88 66.4733 224.32 66.2542C224.761 65.8159 225.202 65.5968 225.642 65.5968C226.524 65.5968 227.185 66.035 227.626 66.6924L228.948 68.8836C230.049 70.4175 231.592 71.7322 233.355 72.6087C235.118 73.4852 236.88 74.1426 238.864 74.1426C240.406 74.1426 242.169 73.7044 243.271 72.6087C244.372 71.5131 245.034 70.1984 245.034 68.6645C245.034 68.0071 245.034 67.3498 244.813 66.4733C244.593 65.8159 244.152 65.1585 243.491 64.7203C242.61 63.8438 241.728 63.1864 240.847 62.5291C239.745 61.6526 238.203 60.7761 236.219 59.4613L233.575 57.7083L231.812 56.6127C231.372 56.1745 230.931 55.9554 230.49 55.5171C230.049 55.298 229.609 54.8597 229.168 54.6406C226.303 52.6685 224.541 49.3816 224.541 45.6565C224.541 42.5888 225.863 39.7402 228.287 37.7681C230.931 35.5769 234.236 34.4812 237.541 34.7004C239.965 34.7004 242.389 35.1386 244.593 36.0151L245.254 36.2342C245.474 36.2342 245.474 36.2342 245.695 36.2342C246.135 36.2342 246.796 36.0151 247.017 35.5769L247.678 35.1386C248.118 34.9195 248.559 34.7004 249 34.7004C249.441 34.7004 249.881 34.9195 250.322 35.1386C250.542 35.796 250.763 36.4534 250.763 37.1107L251.864 43.0271Z" fill="white"/>
<path d="M137.721 43.0277C137.941 42.5895 137.941 41.9321 137.941 41.4939C137.941 41.0556 137.721 40.3982 137.28 40.1791C136.619 39.7409 135.958 39.5217 135.077 39.5217C133.534 39.3026 132.873 38.6453 132.873 37.7688C132.873 37.1114 133.094 36.6731 133.534 36.2349C134.416 35.5775 135.077 35.5775 135.738 35.5775H146.094C146.976 35.5775 147.637 35.5775 148.518 36.0158C148.959 36.2349 149.179 36.8923 149.179 37.3305C149.179 38.207 148.518 38.8644 147.417 39.0835L145.874 39.3026C145.213 39.5217 144.772 39.7409 144.332 40.1791C143.671 41.0556 143.23 41.713 143.009 42.5895L130.229 73.4859L129.788 75.0198C129.127 76.7727 128.025 77.8684 126.703 77.8684C126.042 77.8684 125.381 77.6492 124.94 77.211C124.279 76.5536 123.839 75.6771 123.618 74.8006L123.178 73.4859L110.397 42.5895C109.956 41.9321 109.736 41.2747 109.516 40.8365C109.295 40.3982 109.075 40.1791 108.855 39.7409C107.973 39.96 107.753 39.7409 107.312 39.5217C106.871 39.3026 106.21 39.3026 105.77 39.0835C104.448 38.8644 104.007 38.207 104.007 37.3305C104.007 36.6731 104.227 36.2349 104.668 35.7966C105.549 35.5775 106.431 35.3584 107.312 35.3584H121.635C122.517 35.3584 123.178 35.3584 124.059 35.7966C124.5 36.0158 124.72 36.6731 124.72 37.1114C124.72 38.207 124.059 38.6453 122.517 38.8644L121.194 39.0835C119.652 39.5217 118.991 40.1791 118.991 41.2747C119.211 42.5895 119.432 43.9042 119.872 45.219L120.974 47.8484L121.856 50.2588L128.466 66.9122L137.721 43.0277Z" fill="white"/>
<path d="M226.744 26.8119C226.744 31.8517 224.982 36.6725 221.456 40.3976C219.913 41.9314 218.812 42.8079 217.93 42.8079C217.269 42.8079 216.608 42.3697 216.388 41.7123C216.388 41.4932 216.388 41.4932 216.388 41.274C216.388 41.0549 216.388 40.8358 216.608 40.6167C216.608 40.3976 217.049 39.9593 217.71 39.0828C220.354 36.0151 221.676 33.6047 221.676 31.6326C221.897 30.7561 221.236 30.0987 220.575 29.8796H219.252C217.93 29.6605 216.829 29.2223 215.947 28.3458C215.066 27.4693 214.625 26.1545 214.625 24.8398C214.625 23.3059 215.066 21.7721 216.167 20.6764C217.269 19.5808 218.591 18.9234 220.134 19.1426C221.897 19.1426 223.88 19.7999 224.982 21.3338C226.083 22.8677 226.744 24.8398 226.744 26.8119Z" fill="white"/>
<path d="M79.3275 69.9797C79.3275 71.0753 79.3275 72.171 79.7682 73.2666C80.2089 73.924 80.8699 74.1431 81.531 74.1431H81.9717C83.2938 74.3622 83.7345 74.8005 83.7345 75.8961C83.7345 76.3343 83.5142 76.7726 83.2938 77.2108C82.8531 77.4299 82.4124 77.6491 81.9717 77.6491H68.0894C67.208 77.8682 66.5469 77.2108 66.3266 76.3343C66.3266 76.1152 66.3266 75.8961 66.3266 75.8961C66.3266 74.8005 66.9876 74.3622 68.0894 74.1431H68.5301C69.1912 74.1431 69.8523 73.7048 70.293 73.2666C70.5133 72.171 70.7337 71.0753 70.7337 69.9797V7.74865C70.7337 6.65304 70.7337 9.28252 70.293 8.84427C69.4115 8.40602 68.5301 8.1869 67.4283 8.1869C66.3266 7.96778 65.6655 7.52953 65.6655 6.43391C65.6655 5.99567 65.6655 5.55742 66.1062 5.33829C66.7673 4.90005 67.208 4.68093 67.8691 4.4618L75.8018 1.17495L76.9036 0.736702C77.3443 0.517579 77.5646 0.517578 78.0053 0.517578C78.4461 0.517578 79.1071 0.736702 79.3275 1.17495C79.3275 2.05144 79.5478 2.70881 79.3275 3.58531V69.9797Z" fill="white"/>
<path d="M100.481 69.9796C100.481 71.0753 100.481 72.1709 100.922 73.2665C101.363 73.9239 102.024 74.143 102.685 74.143H103.126C104.448 74.3621 104.889 74.8004 104.889 75.896C104.889 76.3342 104.668 76.7725 104.448 77.2107C104.007 77.4298 103.566 77.649 103.126 77.649H89.2434C88.362 77.8681 87.7009 77.2107 87.4805 76.5533C87.4805 76.3342 87.4805 76.1151 87.4805 75.896C87.4805 74.8004 88.1416 74.3621 89.2434 74.143H89.6841C90.3451 74.143 91.0062 73.7047 91.4469 73.2665C91.6673 72.1709 91.8876 71.0753 91.8876 69.9796V45.8761C91.8876 44.9996 91.6673 44.1231 91.2266 43.4657C90.5655 43.0275 89.6841 42.8083 88.8027 42.8083C87.2602 42.8083 86.5991 42.151 86.5991 41.0553C86.5991 40.6171 86.5991 40.1788 87.0398 39.9597C87.4805 39.5215 88.1416 39.3024 88.8027 39.0832L97.1761 35.7964L98.4982 35.3581C98.7186 35.3581 98.9389 35.139 99.1593 35.3581C99.8204 35.3581 100.261 35.5773 100.702 36.0155C100.922 36.892 101.142 37.9876 100.922 38.8641V69.9796H100.481Z" fill="white"/>
<path d="M101.363 24.84C101.363 26.3739 100.702 27.9077 99.6 29.0034C98.4982 30.099 97.1761 30.7563 95.6336 30.7563C92.5487 30.7563 89.6841 28.346 89.6841 25.2783V25.0591C89.6841 23.5253 90.3451 21.9914 91.4469 21.1149C92.5487 20.0193 94.0912 19.3619 95.6336 19.581C97.1761 19.581 98.7186 20.2384 99.8204 21.334C100.922 21.9914 101.583 23.3061 101.363 24.84Z" fill="white"/>
<path d="M356.092 76.991C354.109 77.6483 351.906 78.0866 349.922 78.0866C348.16 78.0866 346.176 77.8675 344.413 77.2101C342.871 76.7719 341.329 75.8954 340.006 74.7997C338.905 73.7041 337.803 72.6085 337.142 71.0746C336.481 69.5408 336.04 68.0069 336.04 66.2539C336.04 63.8436 336.701 61.4332 338.023 59.242C339.566 57.0507 341.549 55.2977 343.973 53.983C345.736 52.8874 347.719 52.0109 349.922 51.3535C351.685 50.6962 353.448 50.477 355.431 50.477C357.194 50.477 358.075 51.1344 358.075 52.4491C358.075 53.5448 357.414 54.2021 356.092 54.4213C353.228 54.8595 350.583 56.3934 348.38 58.3655C346.617 60.3376 345.515 62.7479 345.736 65.3774C345.515 67.3495 346.176 69.5408 347.498 71.0746C348.821 72.6085 350.583 73.2659 352.567 73.2659C354.109 73.2659 355.431 72.8276 356.753 71.9511C357.855 71.0746 358.957 69.979 359.398 68.6643C359.838 67.7878 360.059 66.6922 360.059 65.5966C360.279 64.0627 360.279 62.748 360.279 61.2141V47.4093C360.279 42.1503 357.635 39.5209 352.567 39.5209C351.685 39.5209 351.024 39.5209 350.143 39.74C349.482 39.74 348.6 39.9591 347.939 40.1782C347.058 40.3974 346.397 40.8356 345.515 41.0547C344.413 41.493 343.532 42.1503 342.651 42.5886C341.99 43.0268 341.329 43.246 340.447 43.246C339.786 43.246 339.345 43.0268 339.125 42.5886C338.684 42.1503 338.464 41.493 338.464 41.0547C338.464 39.9591 339.566 38.6444 341.769 37.3296C345.736 35.1384 350.143 34.0428 354.55 34.2619C359.618 34.2619 363.364 35.3575 365.567 37.3296C366.669 38.4252 367.551 39.74 368.212 41.0547C368.873 43.0268 369.093 44.9989 368.873 46.9711V68.8834C368.873 69.979 368.873 71.0746 369.313 72.1703C369.754 72.8276 370.415 73.0468 371.076 73.0468H371.297C372.398 73.2659 373.06 73.7041 373.06 74.7997C373.06 75.238 372.839 75.6762 372.619 76.1145C372.178 76.3336 371.737 76.5527 371.297 76.5527H362.483C362.042 76.5527 361.601 76.5527 361.16 76.3336C360.94 76.1145 360.72 75.6762 360.72 75.0189V73.2659C359.618 75.238 357.855 76.3336 356.092 76.991Z" fill="white"/>
<path d="M404.35 43.0271C404.57 42.5889 404.57 41.9315 404.57 41.4933C404.57 41.055 404.35 40.3976 403.909 40.1785C403.248 39.7403 402.587 39.5211 401.706 39.5211C400.383 39.302 399.502 38.6446 399.502 37.7682C399.502 37.1108 399.722 36.6725 400.163 36.2343C401.044 35.5769 401.706 35.3578 402.587 35.5769H412.944C413.825 35.5769 414.486 35.5769 415.367 36.0152C415.808 36.2343 416.029 36.8917 416.029 37.3299C416.029 38.2064 415.367 38.8638 414.266 39.0829L412.723 39.302C412.062 39.5211 411.621 39.7403 411.181 40.1785C410.52 41.055 410.079 41.7124 409.859 42.5889L397.078 73.4853L396.637 75.0192C395.976 76.7721 394.875 77.8678 393.552 77.8678C392.891 77.8678 392.23 77.6486 391.79 77.2104C391.129 76.553 390.688 75.6765 390.247 74.8L389.806 73.4853L376.806 42.808C376.365 42.1506 376.144 41.4933 375.924 41.055C375.704 40.6168 375.483 40.3976 375.263 39.9594C375.043 39.7403 374.602 39.5211 374.161 39.302C373.721 39.0829 373.059 39.0829 372.619 38.8638C371.297 38.6446 370.856 37.9873 370.856 37.1108C370.856 36.4534 371.076 36.0152 371.517 35.5769C372.398 35.3578 373.28 35.1387 374.161 35.1387H388.484C389.366 35.1387 390.027 35.1387 390.908 35.5769C391.349 35.796 391.569 36.4534 391.569 36.8917C391.569 37.9873 390.908 38.4255 389.366 38.6446L387.823 39.302C386.501 39.5211 385.84 40.1785 385.84 41.2741C386.06 42.5889 386.281 43.9036 386.721 45.2184L387.823 47.8478L388.705 50.2582L395.315 66.9116L404.35 43.0271Z" fill="white"/>
<path d="M430.131 60.3378C429.69 60.5569 429.249 60.776 428.809 60.9952C428.588 60.9952 428.148 61.2143 427.927 61.2143C426.605 61.2143 425.503 60.3378 425.503 59.023C425.503 59.023 425.503 59.023 425.503 58.8039C425.503 58.3657 425.724 57.7083 425.944 57.2701C426.605 56.6127 427.266 56.1744 427.927 55.7362L435.64 51.1346C436.962 50.4772 438.064 49.6007 438.945 48.5051C439.606 47.6286 439.826 46.533 439.826 45.4374C439.826 43.6844 439.165 41.9314 437.843 40.6167C436.521 39.3019 434.758 38.4254 432.775 38.6446C429.47 38.6446 426.385 40.3975 424.842 43.2461C422.639 47.1904 421.757 51.3537 421.978 55.7362C421.757 60.1187 422.859 64.5011 425.283 68.2262C427.487 71.294 431.012 72.8278 434.538 72.8278C436.521 72.8278 438.504 72.3896 440.488 71.5131C442.471 70.6366 444.234 69.3218 445.776 67.788C446.217 67.3497 446.657 66.9115 447.319 66.6924C447.759 66.4732 448.2 66.4732 448.641 66.4732C449.081 66.4732 449.742 66.6924 450.183 67.1306C450.624 67.5689 450.844 68.0071 450.844 68.4454C450.844 69.9792 449.742 71.5131 447.098 73.4852C443.132 76.3338 438.504 77.8677 433.657 77.8677C430.572 77.8677 427.707 77.4294 424.842 76.3338C422.419 75.2382 419.995 73.9234 418.232 71.9513C416.249 69.9792 414.926 67.5689 413.825 65.1585C412.723 62.3099 412.282 59.2422 412.282 56.1744C412.282 53.1067 412.723 50.039 413.825 47.1904C414.706 44.5609 416.249 42.1505 418.011 40.1784C419.774 38.2063 421.978 36.6724 424.402 35.5768C427.046 34.4812 429.911 33.8238 432.775 34.043C436.962 34.043 441.149 35.1386 444.454 37.7681C445.996 38.8637 447.098 40.1784 448.2 41.9314C449.081 43.2461 449.522 44.78 449.522 46.3139C449.522 48.0669 447.98 50.039 444.895 51.792L430.131 60.3378Z" fill="white"/>
<path d="M297.037 68.6651C297.037 71.5137 297.919 73.0476 299.902 73.0476L300.563 73.2667C301.885 73.4858 302.546 73.924 302.546 75.0197C302.546 76.3344 301.665 76.9918 299.902 76.9918H283.375C281.613 76.9918 280.731 76.3344 280.731 75.0197C280.731 73.924 281.392 73.2667 282.714 73.2667L283.596 73.0476C285.359 72.8284 286.46 71.5137 286.46 68.6651V19.8005C286.681 18.2667 286.24 16.7328 285.579 15.4181C284.257 14.5416 282.935 14.3224 281.392 14.5416H277.867C276.104 14.5416 274.341 14.9798 273.019 16.0754C271.256 17.3902 269.713 18.924 268.832 20.8961C268.612 21.5535 268.171 21.9918 267.73 22.43C267.29 22.43 266.849 22.43 266.408 22.43C265.747 22.43 265.306 22.2109 264.866 21.7726C264.425 21.3344 264.205 20.8961 264.205 20.4579C264.205 20.2388 264.205 19.8005 264.425 19.5814C264.425 19.3623 264.645 18.924 264.866 18.4858L267.951 11.2547L268.391 10.3782C268.832 9.50172 269.713 9.06348 270.595 9.06348H313.564C314.225 9.06348 314.886 9.06348 315.327 9.50172C315.767 9.93997 316.208 10.5973 316.428 11.2547L319.293 18.2667L319.513 19.3623C319.513 19.8005 319.734 20.0197 319.734 20.4579C319.734 21.1153 319.513 21.5535 319.073 21.9918C318.632 22.2109 317.971 22.43 317.53 22.43C317.09 22.43 316.649 22.2109 316.208 21.9918C315.767 21.5535 315.327 21.1153 314.886 20.677C313.564 18.924 312.903 17.8284 312.242 17.171C311.801 16.7328 311.36 16.2946 310.699 15.8563C308.936 14.7607 306.953 14.3224 304.97 14.3224H301.224C299.902 14.1033 298.8 14.5416 297.698 15.4181C297.037 16.7328 296.817 18.2667 296.817 19.8005L297.037 68.6651Z" fill="white"/>
<path d="M330.311 35.1387C331.853 35.1387 333.616 35.5769 334.938 36.2343C336.26 37.1108 336.921 37.9873 336.921 38.8638C336.921 39.5211 336.48 40.3976 336.04 40.8359L334.277 43.0271C333.616 43.6845 333.175 44.1227 332.734 44.1227C332.294 44.1227 332.073 44.1227 331.853 43.9036L330.311 42.808C329.65 42.3697 328.768 42.1506 327.887 42.1506C325.903 42.1506 324.141 43.2462 323.259 44.9992C321.937 47.4096 321.276 50.0391 321.496 52.8877V69.5411C321.496 70.6367 321.496 71.7323 321.937 72.6088C322.378 73.2662 322.819 73.4853 323.7 73.4853H324.581C325.683 73.7044 326.344 74.1427 326.344 75.2383C326.344 75.6765 326.124 76.1148 325.904 76.553C325.463 76.7721 325.022 76.9913 324.581 76.9913H310.479C309.597 77.2104 308.936 76.553 308.716 75.6765C308.716 75.4574 308.716 75.4574 308.716 75.2383C308.716 74.1427 309.377 73.7044 310.479 73.4853H310.919C311.58 73.4853 312.242 73.047 312.682 72.6088C313.123 71.5132 313.123 70.6367 313.123 69.5411V46.7522C313.343 45.6566 313.123 44.561 312.682 43.6845C311.801 43.2462 310.919 42.808 309.818 43.0271C308.496 42.808 307.834 42.3697 307.834 41.2741C307.834 40.8359 308.055 40.6168 308.275 40.1785C308.716 39.7403 309.377 39.5211 310.038 39.302L317.75 36.0152L318.411 35.5769C318.632 35.5769 319.073 35.3578 319.293 35.3578C319.734 35.3578 320.174 35.5769 320.395 36.0152C320.615 36.8917 320.835 37.549 320.615 38.4255V42.1506C322.819 37.3299 326.124 35.1387 330.311 35.1387Z" fill="white"/>
<path d="M467.591 73.4859C467.591 73.4859 470.897 73.9241 470.236 70.8564C469.795 68.446 472.219 72.6094 472.219 72.6094V75.6771L467.591 73.4859Z" fill="white"/>
<path d="M144.112 107.23L147.197 96.9316H149.18L152.265 107.23L155.129 96.9316H156.892L153.146 109.86H151.383L148.298 99.5611L145.213 109.86H143.451L139.705 96.9316H141.688L144.112 107.23Z" fill="white"/>
<path d="M161.079 96.9316H162.841V102.41H169.452V96.9316H171.215V109.86H169.452V103.944H162.841V109.86H161.079V96.9316Z" fill="white"/>
<path d="M181.792 109.86H180.029V104.381L175.182 97.1504H177.385L181.131 103.067L184.877 97.1504H186.86L182.013 104.381L181.792 109.86Z" fill="white"/>
<path d="M196.776 96.9316H201.183C202.064 96.9316 202.946 97.1508 203.607 97.3699C204.488 97.589 205.149 98.0273 205.81 98.4655C206.471 98.9038 207.133 99.7802 207.353 100.438C207.794 101.314 208.014 102.41 208.014 103.286C208.014 104.382 207.794 105.258 207.353 106.135C206.912 107.011 206.471 107.669 205.81 108.107C205.149 108.545 204.268 108.983 203.607 109.203C202.725 109.422 202.064 109.641 201.183 109.641H196.776V96.9316ZM198.539 108.326H200.742C201.403 108.326 202.285 108.326 202.946 108.107C203.607 107.888 204.268 107.669 204.709 107.23C205.149 106.792 205.59 106.354 205.81 105.697C206.031 105.039 206.251 104.382 206.251 103.724C206.251 103.067 206.031 102.191 205.81 101.533C205.59 100.876 205.149 100.438 204.709 99.9994C204.268 99.5611 203.607 99.342 202.946 99.1229C202.285 98.9038 201.624 98.9038 200.742 98.9038H198.539V108.326Z" fill="white"/>
<path d="M226.083 103.286C226.083 104.163 225.863 105.258 225.642 105.916C225.422 106.792 224.761 107.449 224.32 108.107C223.659 108.764 222.998 109.202 222.117 109.422C220.354 110.079 218.371 110.079 216.608 109.422C215.726 109.202 215.065 108.545 214.404 108.107C213.743 107.449 213.303 106.792 213.082 105.916C212.421 104.163 212.421 102.19 213.082 100.437C213.303 99.561 213.964 98.9036 214.404 98.2462C215.065 97.5889 215.726 97.1506 216.608 96.9315C218.371 96.2741 220.354 96.2741 222.117 96.9315C222.998 97.1506 223.659 97.808 224.32 98.2462C224.981 98.9036 225.422 99.561 225.642 100.437C225.863 101.533 226.083 102.41 226.083 103.286ZM224.1 103.286C224.1 102.629 224.1 101.971 223.659 101.314C223.439 100.657 222.998 100.218 222.778 99.7801C222.337 99.3419 221.896 98.9036 221.235 98.6845C219.913 98.2462 218.371 98.2462 217.269 98.6845C216.608 98.9036 215.947 99.1227 215.726 99.7801C215.286 100.218 215.065 100.876 214.845 101.314C214.625 101.971 214.404 102.629 214.404 103.286C214.404 103.943 214.625 104.601 214.845 105.258C215.065 105.916 215.506 106.354 215.726 106.792C216.167 107.23 216.608 107.669 217.269 107.888C217.93 108.107 218.591 108.326 219.252 108.326C219.913 108.326 220.574 108.107 221.235 107.888C221.896 107.669 222.337 107.23 222.778 106.792C223.219 106.354 223.439 105.696 223.659 105.258C224.1 104.82 224.1 103.943 224.1 103.286Z" fill="white"/>
<path d="M250.763 103.286C250.763 104.163 250.542 105.258 250.322 105.916C250.102 106.792 249.441 107.449 249 108.107C248.339 108.764 247.678 109.202 246.796 109.422C245.034 110.079 243.05 110.079 241.288 109.422C240.406 109.202 239.745 108.545 239.084 108.107C238.423 107.449 237.982 106.792 237.762 105.916C237.101 104.163 237.101 102.19 237.762 100.437C237.982 99.561 238.643 98.9036 239.084 98.2462C239.745 97.5889 240.406 97.1506 241.288 96.9315C243.05 96.2741 245.034 96.2741 246.796 96.9315C247.678 97.1506 248.339 97.808 249 98.2462C249.661 98.9036 250.102 99.561 250.322 100.437C250.542 101.533 250.763 102.41 250.763 103.286ZM248.78 103.286C248.78 102.629 248.78 101.971 248.339 101.314C248.119 100.657 247.678 100.218 247.457 99.7801C247.017 99.3419 246.576 98.9036 245.915 98.6845C244.593 98.2462 243.05 98.2462 241.949 98.6845C241.288 98.9036 240.847 99.3419 240.406 99.7801C239.965 100.218 239.745 100.876 239.525 101.314C239.304 101.971 239.084 102.629 239.084 103.286C239.084 103.943 239.304 104.601 239.525 105.258C239.745 105.916 240.186 106.354 240.406 106.792C240.847 107.23 241.288 107.669 241.949 107.888C242.61 108.107 243.271 108.326 243.932 108.326C244.593 108.326 245.254 108.107 245.915 107.888C246.576 107.669 247.017 107.23 247.457 106.792C247.898 106.354 248.119 105.696 248.339 105.258C248.78 104.82 248.78 103.943 248.78 103.286Z" fill="white"/>
<path d="M257.374 109.86H255.611V96.9316H259.798C260.459 96.9316 261.12 96.9316 261.56 97.1508C262.001 97.1508 262.662 97.3699 263.103 97.8081C263.544 98.0273 263.984 98.4655 264.205 98.9038C264.425 99.342 264.645 99.9994 264.645 100.657C264.645 101.533 264.205 102.41 263.544 103.067C262.883 103.724 262.221 104.163 261.34 104.163L265.086 110.079H262.883L259.577 104.382H257.594L257.374 109.86ZM257.374 102.629H259.357C259.798 102.629 260.238 102.629 260.459 102.629C260.899 102.629 261.12 102.41 261.34 102.191C261.56 101.971 261.781 101.752 262.001 101.533C262.221 101.314 262.221 100.876 262.221 100.657C262.221 100.218 262.221 99.9994 262.001 99.7802C261.781 99.5611 261.56 99.342 261.34 99.1229C261.12 98.9038 260.679 98.9038 260.459 98.6846C260.018 98.6846 259.798 98.6846 259.357 98.6846H257.153L257.374 102.629Z" fill="white"/>
<path d="M269.052 96.9316H273.459C274.341 96.9316 275.222 97.1508 275.883 97.3699C276.765 97.589 277.426 98.0273 278.087 98.4655C278.748 98.9038 279.409 99.7802 279.629 100.438C280.07 101.314 280.29 102.41 280.29 103.286C280.29 104.382 280.07 105.258 279.629 106.135C279.189 107.011 278.748 107.669 278.087 108.107C277.426 108.545 276.544 108.983 275.883 109.203C275.002 109.422 274.341 109.641 273.459 109.641H269.052V96.9316ZM270.815 108.326H273.019C273.68 108.326 274.561 108.326 275.222 108.107C275.883 107.888 276.544 107.669 276.985 107.23C277.426 106.792 277.866 106.354 278.087 105.697C278.307 105.039 278.527 104.382 278.527 103.724C278.527 103.067 278.307 102.191 278.087 101.533C277.866 100.876 277.426 100.438 276.985 99.9994C276.544 99.5611 275.883 99.342 275.222 99.1229C274.561 98.9038 273.9 98.9038 273.019 98.9038H270.815V108.326Z" fill="white"/>
<path d="M287.121 109.86H285.358V96.9316H287.121V109.86Z" fill="white"/>
<path d="M301.664 107.23V96.9316H303.427V109.86H301.224L294.393 99.1229V109.641H292.63V96.9316H295.054L301.664 107.23Z" fill="white"/>
<path d="M309.597 109.86H307.614L313.343 96.9316H314.886L320.395 109.86H318.412L317.089 106.792H310.92L309.597 109.86ZM311.36 105.039H316.208L313.784 98.9038L311.36 105.039Z" fill="white"/>
<path d="M326.124 109.86H324.361V96.9316H328.327C328.988 96.9316 329.649 96.9316 330.09 97.1508C330.531 97.1508 331.192 97.3699 331.633 97.8081C332.073 98.0273 332.514 98.4655 332.734 98.9038C332.955 99.342 333.175 99.9994 333.175 100.657C333.175 101.533 332.955 102.41 332.294 102.848C331.633 103.505 330.971 103.944 330.09 103.944L333.836 109.86H331.633L328.327 104.163H326.124V109.86ZM326.124 102.629H328.107C328.548 102.629 328.988 102.629 329.209 102.629C329.649 102.629 329.87 102.41 330.09 102.191C330.31 101.971 330.531 101.752 330.751 101.533C330.971 101.314 330.971 100.876 330.971 100.657C330.971 100.218 330.971 99.9994 330.751 99.7802C330.531 99.5611 330.31 99.342 330.09 99.1229C329.87 98.9038 329.429 98.9038 329.209 98.6846C328.768 98.6846 328.548 98.6846 328.107 98.6846H325.903L326.124 102.629Z" fill="white"/>
<path d="M342.651 109.86H340.888V104.382L336.04 96.9316H338.244L341.99 102.848L345.736 96.9316H347.719L342.871 104.163L342.651 109.86Z" fill="white"/>
<path d="M355.211 106.135H353.448V105.259C353.448 105.04 353.448 104.601 353.448 104.382C353.448 104.163 353.668 103.944 353.668 103.725C353.888 103.506 353.888 103.287 354.109 103.067C354.329 102.848 354.55 102.629 354.77 102.41L355.431 101.753C355.651 101.534 355.872 101.314 356.092 101.095C356.312 100.876 356.312 100.438 356.312 99.9997C356.312 99.5615 356.092 98.9041 355.651 98.685C355.211 98.2467 354.77 98.2467 354.329 98.2467C353.668 98.2467 353.227 98.4659 352.787 98.9041C352.346 99.3424 352.126 99.7806 352.126 100.219L350.363 99.9997C350.363 99.5615 350.583 99.1232 350.804 98.685C351.024 98.2467 351.244 98.0276 351.685 97.5894C352.126 97.3703 352.346 97.1511 352.787 96.932C353.227 96.7129 353.668 96.7129 354.329 96.7129C354.77 96.7129 355.211 96.7129 355.651 96.932C356.092 97.1511 356.533 97.3703 356.753 97.5894C357.194 97.8085 357.414 98.2467 357.634 98.685C357.855 99.1232 357.855 99.5615 357.855 100.219C357.855 100.657 357.855 100.876 357.634 101.314C357.634 101.534 357.414 101.753 357.194 102.191C356.973 102.41 356.753 102.629 356.753 102.848L356.092 103.506C355.872 103.725 355.651 103.944 355.431 103.944C355.211 104.163 355.211 104.163 354.99 104.382C354.99 104.601 354.77 104.82 354.77 105.04C354.77 105.259 354.77 105.478 354.77 105.697L355.211 106.135ZM355.872 108.765C355.872 109.422 355.211 110.079 354.55 110.079C354.329 110.079 353.888 109.86 353.668 109.641C353.448 109.422 353.227 109.203 353.227 108.765C353.227 108.546 353.448 108.107 353.668 107.888C354.109 107.45 354.99 107.45 355.431 107.888C355.651 108.107 355.872 108.326 355.872 108.765Z" fill="white"/>
</g>
<defs>
<clipPath id="clip0_162_15">
<rect width="498" height="110" fill="white" transform="translate(0 0.0791016)"/>
</clipPath>
</defs>
</svg>
